<svg width="491" height="776" viewBox="0 0 491 776" fill="none" xmlns="http://www.w3.org/2000/svg">
<path d="M42.5725 307.822C31.8465 372.877 49.1365 425.799 81.1165 425.799H300.251C347.684 425.799 373.328 504.291 357.417 600.778C341.505 697.265 289.971 775.757 242.537 775.757L0.906506 773.681C0.210506 773.681 -0.165493 772.533 0.0705074 771.119C0.304507 769.705 1.05751 768.557 1.75251 768.557L243.384 770.632C250.333 770.632 256.562 766.463 264.348 763.554C320.555 742.549 312.44 703.569 320.839 652.655C331.568 587.602 314.275 534.678 282.294 534.678H63.1605C15.7275 534.678 -9.91749 456.182 5.99451 359.699C19.0455 280.565 32.0585 186.311 95.1175 191.984C104.86 192.86 112.345 184.72 120.875 184.72L316.846 182.645C317.542 182.645 317.917 183.793 317.682 185.209C317.448 186.623 316.695 187.771 316 187.771L120.031 189.847C88.0505 189.847 53.3035 242.769 42.5725 307.822Z" fill="white"/>
<path d="M444.775 125.177C456.358 190.232 437.687 243.154 403.153 243.154H166.521C115.301 243.154 87.6076 321.646 104.791 418.133C121.973 514.621 177.622 593.112 228.844 593.112L489.769 591.036C490.519 591.036 490.925 589.888 490.671 588.474C490.419 587.06 489.605 585.912 488.855 585.912L227.929 587.987C220.425 587.987 213.697 583.818 205.291 580.909C144.596 559.904 153.358 520.924 144.289 470.01C132.703 404.957 151.377 352.033 185.911 352.033H422.543C473.764 352.033 501.456 273.537 484.274 177.054C470.181 97.92 456.129 3.66602 388.035 9.33899C377.515 10.215 369.432 2.07501 360.22 2.07501L148.601 0C147.849 0 147.444 1.14801 147.697 2.56403C147.95 3.97803 148.764 5.12598 149.515 5.12598L361.132 7.20203C395.666 7.20203 433.187 60.124 444.775 125.177Z" fill="white"/>
</svg>
